<svg width="25" height="25" viewBox="0 0 25 25" fill="none" xmlns="http://www.w3.org/2000/svg">
<path d="M4.5 19.5L3.60557 19.0528C3.43092 19.4021 3.47559 19.8211 3.71996 20.1257C3.96432 20.4304 4.36367 20.5649 4.74254 20.4701L4.5 19.5ZM19.5 12C19.5 15.5899 16.5899 18.5 13 18.5V20.5C17.6944 20.5 21.5 16.6944 21.5 12H19.5ZM6.5 12C6.5 8.41015 9.41015 5.5 13 5.5V3.5C8.30558 3.5 4.5 7.30558 4.5 12H6.5ZM13 5.5C16.5899 5.5 19.5 8.41015 19.5 12H21.5C21.5 7.30558 17.6944 3.5 13 3.5V5.5ZM13 18.5C12.5177 18.5 11.9278 18.3165 11.198 18.0576C10.8628 17.9386 10.4876 17.801 10.1401 17.6977C9.79816 17.5961 9.39708 17.5 9 17.5V19.5C9.10292 19.5 9.28138 19.5289 9.57014 19.6148C9.85332 19.699 10.1599 19.8114 10.5292 19.9424C11.2086 20.1835 12.1186 20.5 13 20.5V18.5ZM9 17.5C8.83739 17.5 8.63628 17.5326 8.49174 17.5578C8.31787 17.588 8.10765 17.6298 7.87993 17.6777C7.42315 17.7739 6.86737 17.901 6.33346 18.0266C5.79829 18.1525 5.27953 18.2783 4.89494 18.3725C4.70253 18.4196 4.54344 18.4589 4.43234 18.4864C4.37678 18.5002 4.33321 18.511 4.30346 18.5184C4.28858 18.5221 4.27715 18.5249 4.26941 18.5269C4.26554 18.5278 4.26259 18.5286 4.26059 18.5291C4.25959 18.5293 4.25883 18.5295 4.25831 18.5296C4.25804 18.5297 4.25784 18.5298 4.2577 18.5298C4.25763 18.5298 4.25757 18.5298 4.25754 18.5298C4.25749 18.5299 4.25746 18.5299 4.5 19.5C4.74254 20.4701 4.74254 20.4701 4.74255 20.4701C4.74258 20.4701 4.74261 20.4701 4.74266 20.4701C4.74277 20.4701 4.74293 20.47 4.74315 20.47C4.7436 20.4699 4.74429 20.4697 4.74521 20.4695C4.74706 20.469 4.74985 20.4683 4.75357 20.4674C4.76099 20.4655 4.77209 20.4628 4.78663 20.4591C4.81572 20.4519 4.85857 20.4413 4.91337 20.4277C5.02297 20.4005 5.18028 20.3617 5.37068 20.315C5.75172 20.2217 6.26421 20.0975 6.79154 19.9734C7.32013 19.849 7.8581 19.7261 8.29195 19.6348C8.50954 19.589 8.69385 19.5526 8.83443 19.5282C9.00435 19.4986 9.03761 19.5 9 19.5V17.5ZM4.5 19.5C5.39443 19.9472 5.39446 19.9471 5.3945 19.9471C5.39452 19.947 5.39457 19.9469 5.39461 19.9468C5.3947 19.9467 5.3948 19.9465 5.39493 19.9462C5.3952 19.9457 5.39555 19.945 5.39599 19.9441C5.39687 19.9423 5.3981 19.9398 5.39969 19.9367C5.40285 19.9303 5.4074 19.9211 5.41323 19.9093C5.42491 19.8857 5.44175 19.8515 5.46302 19.808C5.50555 19.7209 5.56589 19.5962 5.63811 19.4437C5.78224 19.1394 5.97528 18.7213 6.16914 18.2689C6.36189 17.8192 6.56131 17.3221 6.71431 16.8631C6.85507 16.4408 7 15.9284 7 15.5H5C5 15.5716 4.95743 15.8092 4.81694 16.2306C4.68869 16.6154 4.51311 17.0558 4.33085 17.4811C4.14972 17.9037 3.96776 18.2981 3.83064 18.5875C3.76224 18.7319 3.70539 18.8494 3.66589 18.9303C3.64614 18.9707 3.63076 19.002 3.62046 19.0228C3.61531 19.0332 3.61143 19.041 3.60892 19.0461C3.60766 19.0486 3.60675 19.0504 3.60619 19.0516C3.60591 19.0521 3.60571 19.0525 3.60561 19.0527C3.60556 19.0528 3.60553 19.0529 3.60552 19.0529C3.60552 19.0529 3.60553 19.0529 3.60553 19.0529C3.60555 19.0528 3.60557 19.0528 4.5 19.5ZM7 15.5C7 14.8828 6.85053 14.1221 6.73148 13.5122C6.59726 12.8245 6.5 12.317 6.5 12H4.5C4.5 12.5596 4.65275 13.3021 4.76852 13.8953C4.89947 14.5662 5 15.1172 5 15.5H7Z" fill="#D3D2D3"/>
</svg>
